<?xml version="1.0" encoding="utf-8"?>
<svg viewBox="0 0 2700 2700" xmlns="http://www.w3.org/2000/svg">
  <rect style="fill: rgb(255, 255, 255);" width="2700" height="2700" rx="350" ry="350"/>
  <path fill="#000000" opacity="1.000000" d="M 735.563 1467.135 C 735.563 1439.753 735.81 1425.699 736.117 1397.844 C 738.308 1380.976 739.73 1364.512 742.166 1348.199 C 747.852 1310.133 757.114 1272.902 770.298 1236.726 C 819.095 1102.83 904.096 997.852 1024.194 921.571 C 1110.036 867.049 1204.101 836.078 1305.451 827.37 C 1343.604 824.092 1381.772 824.253 1419.888 827.706 C 1464.195 831.72 1507.601 840.465 1550.042 853.838 C 1636.359 881.037 1713.356 924.738 1780.757 985.106 C 1844.527 1042.223 1894.471 1109.684 1930.244 1187.514 C 1950.011 1230.518 1964.96 1275.164 1973.486 1321.745 C 1977.658 1344.545 1980.155 1367.651 1983.284 1390.744 C 1983.287 1391.302 1983.415 1391.735 1983.562 1392.52 C 1983.757 1395.401 1983.933 1397.929 1983.976 1400.717 C 1984.009 1401.914 1984.175 1402.85 1984.351 1404.118 C 1984.452 1406.824 1984.544 1409.195 1984.496 1411.848 C 1984.627 1417.676 1985.214 1423.003 1985.214 1428.571 C 1985.214 1436.332 1985.296 1443.929 1985.139 1452.283 C 1985.115 1458.712 1984.389 1463.965 1984.597 1469.862 C 1984.503 1472.571 1984.405 1474.967 1984.151 1477.519 C 1984.053 1478.346 1984.112 1479.016 1984.164 1480.01 C 1982.156 1509.837 1978.211 1539.064 1972.025 1567.997 C 1955.887 1643.462 1926.304 1713.247 1883.728 1777.565 C 1883.207 1778.354 1882.536 1779.043 1881.83 1779.907 C 1772.393 1623.131 1663.189 1466.689 1553.716 1309.862 C 1471.591 1428.388 1389.83 1546.389 1307.882 1664.662 C 1263.482 1618.288 1219.496 1572.347 1175.245 1526.13 C 1076.849 1629.21 978.607 1732.125 880.405 1835 C 879.925 1834.696 879.655 1834.603 879.499 1834.416 C 876.454 1830.742 873.374 1827.096 870.395 1823.369 C 794.85 1728.862 750.509 1621.541 738.079 1501.115 C 737.368 1494.226 735.581 1474.019 735.563 1467.135 Z" style=""/>
</svg>